<?xml version="1.0" standalone="no"?>
<!DOCTYPE svg PUBLIC "-//W3C//DTD SVG 20010904//EN"
 "http://www.w3.org/TR/2001/REC-SVG-20010904/DTD/svg10.dtd">
<svg version="1.0" xmlns="http://www.w3.org/2000/svg"
 width="920.000000pt" height="924.000000pt" viewBox="0 0 920.000000 924.000000"
 preserveAspectRatio="xMidYMid meet">

<g transform="translate(0.000000,924.000000) scale(0.100000,-0.100000)"
fill="#000000" stroke="none">
<path d="M4275 9009 c-610 -51 -1145 -203 -1678 -477 -911 -467 -1635 -1247
-2035 -2193 -179 -423 -288 -870 -332 -1354 -13 -153 -5 -687 14 -840 127
-1042 570 -1944 1307 -2660 714 -695 1622 -1116 2629 -1220 192 -19 674 -19
865 1 1014 106 1943 545 2658 1258 655 653 1078 1469 1233 2383 78 465 78 994
-2 1463 -298 1757 -1643 3167 -3384 3549 -316 69 -531 92 -890 96 -157 1 -330
-1 -385 -6z m765 -1523 c30 -15 70 -42 88 -59 40 -38 126 -175 184 -292 l42
-85 82 6 c211 17 313 -96 398 -441 42 -170 51 -274 51 -565 -1 -304 -8 -377
-60 -580 -60 -237 -179 -506 -315 -714 l-71 -108 44 -47 c118 -126 242 -325
321 -514 99 -235 134 -399 143 -654 l6 -182 51 26 c28 14 123 69 211 121 337
201 569 287 825 307 220 17 414 -75 499 -236 103 -191 75 -396 -73 -545 -73
-72 -131 -101 -286 -142 -195 -52 -299 -102 -560 -266 -345 -218 -653 -367
-1036 -499 -55 -19 -129 -54 -164 -76 -136 -88 -343 -124 -970 -170 -649 -48
-816 -30 -1002 112 l-46 35 -65 -23 c-185 -67 -409 -52 -640 45 -184 76 -275
195 -285 373 -5 84 -8 94 -38 135 -64 82 -128 238 -160 385 -24 111 -30 315
-11 413 33 172 120 337 270 513 26 30 44 58 41 62 -11 19 18 330 42 449 74
366 210 614 497 907 l90 92 -30 58 c-111 209 -155 435 -120 620 33 170 148
403 232 467 19 15 80 47 135 71 87 37 112 54 187 125 204 193 426 305 691 346
l107 17 50 105 c113 240 240 380 388 428 69 23 191 13 257 -20z"/>
<path d="M4834 7241 c-80 -49 -198 -238 -275 -443 l-32 -88 -95 0 c-55 0 -136
-8 -195 -21 -201 -40 -352 -123 -528 -287 -94 -87 -144 -118 -290 -180 -39
-17 -50 -28 -81 -88 -70 -134 -91 -208 -92 -319 0 -65 6 -123 17 -165 31 -117
141 -322 215 -403 16 -16 22 -30 16 -35 -5 -5 -45 -38 -89 -73 -162 -130 -340
-328 -433 -483 -122 -201 -193 -489 -194 -790 l-1 -170 -64 -65 c-92 -97 -148
-175 -198 -276 -50 -105 -65 -166 -65 -274 0 -213 86 -465 180 -529 28 -19 44
-23 83 -19 26 2 47 2 47 0 0 -2 -12 -20 -26 -38 -32 -42 -64 -125 -64 -166 0
-81 56 -131 197 -175 212 -68 393 -47 500 58 55 54 95 144 141 321 21 81 41
150 45 153 3 3 34 -23 69 -59 35 -35 72 -70 83 -76 20 -11 19 -12 -5 -28 -14
-9 -50 -42 -81 -73 -65 -65 -85 -119 -76 -208 17 -198 165 -253 602 -228 349
20 769 57 922 81 136 22 202 47 263 101 14 12 84 41 155 64 356 117 666 266
1000 478 265 170 428 243 697 317 68 18 114 55 139 110 47 102 0 215 -106 261
-90 39 -316 10 -498 -62 -126 -50 -180 -78 -385 -200 -97 -58 -215 -123 -262
-146 -128 -61 -282 -109 -354 -111 l-61 -2 0 50 c1 28 8 106 18 173 42 305 9
572 -104 846 -88 215 -189 366 -353 528 -63 63 -106 113 -103 121 3 7 57 91
121 186 221 330 339 622 382 944 20 153 19 452 -1 614 -20 152 -53 290 -91
374 l-28 61 -39 -5 c-22 -3 -80 -25 -130 -49 l-90 -44 -123 246 c-67 135 -136
260 -153 278 -35 38 -79 42 -127 13z"/>
</g>
</svg>
